<?xml version="1.0" encoding="utf-8"?>
<!-- Generator: Adobe Illustrator 25.2.1, SVG Export Plug-In . SVG Version: 6.00 Build 0)  -->
<svg version="1.1" id="Layer_1" xmlns="http://www.w3.org/2000/svg" xmlns:xlink="http://www.w3.org/1999/xlink" x="0px" y="0px"
	 viewBox="0 0 1366 768" style="enable-background:new 0 0 1366 768;" xml:space="preserve">
<path d="M697.1,390.9c-0.6-0.6-1.5-0.6-2,0l-6.8,6.8c0.2-1,0.3-1.9,0.3-2.9c0-8.9-7.2-16.2-16.2-16.2c-1,0-2,0.1-2.9,0.3l12.5-12.5
	c0.6-0.6,0.6-1.5,0-2c-0.6-0.6-1.5-0.6-2,0c0,0-19.3,19.3-19.3,19.3c-2.7,2.9-4.4,6.8-4.4,11c0,8.9,7.2,16.2,16.2,16.2
	c4.5,0,8.6-1.9,11.5-4.8l13.1-13.1C697.6,392.3,697.6,391.4,697.1,390.9z M659.1,394.7c0-3.6,1.4-6.9,3.8-9.3l0.3-0.3
	c2.4-2.3,5.7-3.8,9.3-3.8c7.3,0,13.3,6,13.3,13.3c0,3.6-1.5,6.9-3.8,9.3l-0.1,0.1c0,0,0,0,0,0c-2.4,2.4-5.7,3.9-9.4,3.9
	C665.1,408,659.1,402,659.1,394.7z"/>
<path d="M700.2,389c-0.4,0-0.7-0.1-1-0.4c-0.6-0.6-0.6-1.5,0-2l7-7c0.6-0.6,1.5-0.6,2,0c0.6,0.6,0.6,1.5,0,2l-7,7
	C700.9,388.9,700.6,389,700.2,389z"/>
<path d="M685.2,362.6c-0.2,0-0.4,0-0.5-0.1c-0.2-0.1-0.3-0.2-0.5-0.3c-0.3-0.3-0.4-0.6-0.4-1c0-0.1,0-0.2,0-0.3c0-0.1,0-0.2,0.1-0.3
	c0-0.1,0.1-0.2,0.1-0.2c0.1-0.1,0.1-0.2,0.2-0.2c0.1-0.1,0.1-0.1,0.2-0.2c0.1,0,0.2-0.1,0.2-0.1c0.1,0,0.2-0.1,0.3-0.1
	c0.5-0.1,1,0.1,1.3,0.4c0.1,0.1,0.1,0.1,0.2,0.2c0,0.1,0.1,0.2,0.1,0.2c0,0.1,0.1,0.2,0.1,0.3c0,0.1,0,0.2,0,0.3
	c0,0.4-0.2,0.7-0.4,1C685.9,362.4,685.6,362.6,685.2,362.6z"/>
<path d="M672.5,406.2c-0.2,0-0.4,0-0.5-0.1c-0.2-0.1-0.3-0.2-0.5-0.3c-0.3-0.3-0.4-0.6-0.4-1s0.1-0.7,0.4-1c0.5-0.5,1.5-0.5,2,0
	c0.3,0.3,0.4,0.6,0.4,1c0,0.2,0,0.4-0.1,0.5c-0.1,0.2-0.2,0.3-0.3,0.5c-0.1,0.1-0.3,0.2-0.5,0.3
	C672.8,406.2,672.6,406.2,672.5,406.2z"/>
<path d="M683.1,377.7c-0.4,0-0.7-0.1-1-0.4c-0.6-0.6-0.6-1.5,0-2l12.7-12.7c0.6-0.6,1.5-0.6,2,0c0.6,0.6,0.6,1.5,0,2l-12.7,12.7
	C683.9,377.6,683.5,377.7,683.1,377.7z"/>
<path d="M703.6,378.3c-0.4,0-0.7-0.1-1-0.4c-0.6-0.6-0.6-1.5,0-2l2.9-2.9c0.6-0.6,1.5-0.6,2,0c0.6,0.6,0.6,1.5,0,2l-2.9,2.9
	C704.3,378.1,703.9,378.3,703.6,378.3z"/>
<path d="M701.3,359.6c-0.2,0-0.4,0-0.5-0.1c-0.2-0.1-0.3-0.2-0.5-0.3c-0.3-0.3-0.4-0.6-0.4-1c0-0.4,0.2-0.7,0.4-1
	c0.1-0.1,0.1-0.1,0.2-0.2c0.1,0,0.2-0.1,0.2-0.1c0.1,0,0.2-0.1,0.3-0.1c0.2,0,0.4,0,0.5,0c0.1,0,0.2,0,0.3,0.1
	c0.1,0,0.2,0.1,0.2,0.1c0.1,0.1,0.2,0.1,0.2,0.2c0.3,0.3,0.4,0.6,0.4,1c0,0.4-0.1,0.7-0.4,1c-0.1,0.1-0.3,0.2-0.5,0.3
	C701.7,359.6,701.5,359.6,701.3,359.6z"/>
<path d="M670.3,388.4c-0.2,0-0.4,0-0.5-0.1c-0.2-0.1-0.3-0.2-0.5-0.3c-0.1-0.1-0.2-0.3-0.3-0.5s-0.1-0.4-0.1-0.5
	c0-0.4,0.2-0.7,0.4-1c0.1-0.1,0.1-0.1,0.2-0.2c0.1-0.1,0.2-0.1,0.2-0.1c0.1,0,0.2-0.1,0.3-0.1c0.5-0.1,0.9,0.1,1.3,0.4
	c0.3,0.3,0.4,0.6,0.4,1c0,0.2,0,0.4-0.1,0.5c-0.1,0.2-0.2,0.3-0.3,0.5c-0.1,0.1-0.3,0.2-0.5,0.3
	C670.7,388.3,670.5,388.4,670.3,388.4z"/>
<path d="M681,395.2c-0.2,0-0.4,0-0.5-0.1s-0.3-0.2-0.5-0.3c-0.3-0.3-0.4-0.6-0.4-1c0-0.1,0-0.2,0-0.3c0-0.1,0-0.2,0.1-0.3
	c0-0.1,0.1-0.2,0.1-0.2c0.1-0.1,0.1-0.1,0.2-0.2c0.5-0.5,1.5-0.5,2,0c0.3,0.3,0.4,0.6,0.4,1c0,0.4-0.1,0.7-0.4,1
	c-0.1,0.1-0.3,0.2-0.5,0.3C681.4,395.2,681.2,395.2,681,395.2z"/>
<path d="M699.6,373.7c-0.4,0-0.7-0.1-1-0.4c-0.1-0.1-0.2-0.3-0.3-0.5c-0.1-0.2-0.1-0.4-0.1-0.5c0-0.4,0.1-0.7,0.4-1
	c0.3-0.3,0.8-0.5,1.3-0.4c0.1,0,0.2,0,0.3,0.1c0.1,0,0.2,0.1,0.2,0.1c0.1,0.1,0.1,0.1,0.2,0.2c0.3,0.3,0.4,0.6,0.4,1
	c0,0.4-0.2,0.7-0.4,1c-0.1,0.1-0.3,0.2-0.5,0.3C700,373.7,699.8,373.7,699.6,373.7z"/>
<path d="M688,385.3c-0.4,0-0.7-0.1-1-0.4c-0.6-0.6-0.6-1.5,0-2l6.4-6.4c0.6-0.6,1.5-0.6,2,0c0.6,0.6,0.6,1.5,0,2l-6.4,6.4
	C688.8,385.2,688.4,385.3,688,385.3z"/>
<circle cx="678.2" cy="388.2" r="2.7"/>
<circle cx="663.9" cy="396.4" r="1.8"/>
<circle cx="676.6" cy="401.4" r="1.8"/>
</svg>
